<svg width="85" height="78" viewBox="0 0 85 78" fill="none" xmlns="http://www.w3.org/2000/svg">
<path d="M27.1738 14H7.92237V17.3424C7.92237 18.319 8.79055 19.6129 8.04367 20.0522C7.97415 20.0931 7.92237 20.1635 7.92237 20.2441C7.92237 20.6474 7.67266 21.006 7.30501 21.1718C2.87767 23.1676 0 27.5838 0 32.4813V64H35.0962V32.4813C35.0962 27.5838 32.2185 23.1676 27.7911 21.1718C27.4235 21.006 27.1738 20.6474 27.1738 20.2441C27.1738 20.1635 27.122 20.0931 27.0525 20.0522C26.3056 19.6129 27.1738 18.319 27.1738 17.3424V14Z" fill="#E46C45"/>
<path d="M49.04 61C50.2773 61 51.344 60.5733 52.24 59.72C53.0933 58.824 53.52 57.7573 53.52 56.52V20.68C53.52 19.4427 53.0933 18.376 52.24 17.48C51.344 16.6267 50.2773 16.2 49.04 16.2C47.8027 16.2 46.736 16.6267 45.84 17.48C44.9867 18.376 44.56 19.4427 44.56 20.68V56.52C44.56 57.7573 44.9867 58.824 45.84 59.72C46.736 60.5733 47.8027 61 49.04 61ZM61.1825 16.2C59.9452 16.2 58.8785 16.6267 57.9825 17.48C57.1292 18.376 56.7025 19.4427 56.7025 20.68C56.7025 21.9173 57.1292 22.9627 57.9825 23.816C58.8785 24.712 59.9452 25.16 61.1825 25.16H65.6625V56.52C65.6625 57.7573 66.0892 58.8027 66.9425 59.656C67.8385 60.552 68.9052 61 70.1425 61C71.3798 61 72.4252 60.552 73.2785 59.656C74.1745 58.8027 74.6225 57.7573 74.6225 56.52V25.16H79.1025C80.3398 25.16 81.4065 24.712 82.3025 23.816C83.1558 22.9627 83.5825 21.9173 83.5825 20.68C83.5825 19.4427 83.1558 18.376 82.3025 17.48C81.4065 16.6267 80.3398 16.2 79.1025 16.2H61.1825Z" fill="#E46C45"/>
<path d="M52.24 59.72L52.9297 60.4441L52.9473 60.4273L52.9641 60.4097L52.24 59.72ZM52.24 17.48L52.9641 16.7903L52.9473 16.7727L52.9297 16.7559L52.24 17.48ZM45.84 17.48L45.1503 16.7559L45.1327 16.7727L45.1159 16.7903L45.84 17.48ZM45.84 59.72L45.1159 60.4097L45.1327 60.4273L45.1503 60.4441L45.84 59.72ZM49.04 62C50.5341 62 51.8477 61.4746 52.9297 60.4441L51.5503 58.9959C50.8403 59.6721 50.0206 60 49.04 60V62ZM52.9641 60.4097C53.9946 59.3277 54.52 58.0141 54.52 56.52H52.52C52.52 57.5006 52.1921 58.3203 51.5159 59.0303L52.9641 60.4097ZM54.52 56.52V20.68H52.52V56.52H54.52ZM54.52 20.68C54.52 19.1859 53.9946 17.8723 52.9641 16.7903L51.5159 18.1697C52.1921 18.8797 52.52 19.6994 52.52 20.68H54.52ZM52.9297 16.7559C51.8477 15.7254 50.5341 15.2 49.04 15.2V17.2C50.0206 17.2 50.8403 17.5279 51.5503 18.2041L52.9297 16.7559ZM49.04 15.2C47.5459 15.2 46.2323 15.7254 45.1503 16.7559L46.5297 18.2041C47.2397 17.5279 48.0594 17.2 49.04 17.2V15.2ZM45.1159 16.7903C44.0854 17.8723 43.56 19.1859 43.56 20.68H45.56C45.56 19.6994 45.8879 18.8797 46.5641 18.1697L45.1159 16.7903ZM43.56 20.68V56.52H45.56V20.68H43.56ZM43.56 56.52C43.56 58.0141 44.0854 59.3277 45.1159 60.4097L46.5641 59.0303C45.8879 58.3203 45.56 57.5006 45.56 56.52H43.56ZM45.1503 60.4441C46.2323 61.4746 47.5459 62 49.04 62V60C48.0594 60 47.2397 59.6721 46.5297 58.9959L45.1503 60.4441ZM57.9825 17.48L57.2928 16.7559L57.2752 16.7727L57.2584 16.7903L57.9825 17.48ZM57.9825 23.816L58.6896 23.1089L58.6896 23.1089L57.9825 23.816ZM65.6625 25.16H66.6625V24.16H65.6625V25.16ZM66.9425 59.656L66.2354 60.3631L66.9425 59.656ZM73.2785 59.656L72.5888 58.9319L72.5712 58.9487L72.5544 58.9663L73.2785 59.656ZM74.6225 25.16V24.16H73.6225V25.16H74.6225ZM82.3025 23.816L81.5954 23.1089V23.1089L82.3025 23.816ZM82.3025 17.48L83.0266 16.7903L83.0098 16.7727L82.9922 16.7559L82.3025 17.48ZM61.1825 15.2C59.6884 15.2 58.3748 15.7254 57.2928 16.7559L58.6722 18.2041C59.3822 17.5279 60.2019 17.2 61.1825 17.2V15.2ZM57.2584 16.7903C56.2279 17.8723 55.7025 19.1859 55.7025 20.68H57.7025C57.7025 19.6994 58.0304 18.8797 58.7066 18.1697L57.2584 16.7903ZM55.7025 20.68C55.7025 22.175 56.2293 23.477 57.2754 24.5231L58.6896 23.1089C58.0291 22.4483 57.7025 21.6596 57.7025 20.68H55.7025ZM57.2754 24.5231C58.3539 25.6016 59.6729 26.16 61.1825 26.16V24.16C60.2175 24.16 59.4031 23.8224 58.6896 23.1089L57.2754 24.5231ZM61.1825 26.16H65.6625V24.16H61.1825V26.16ZM64.6625 25.16V56.52H66.6625V25.16H64.6625ZM64.6625 56.52C64.6625 58.015 65.1893 59.317 66.2354 60.3631L67.6496 58.9489C66.9891 58.2883 66.6625 57.4996 66.6625 56.52H64.6625ZM66.2354 60.3631C67.3139 61.4416 68.6329 62 70.1425 62V60C69.1775 60 68.3631 59.6624 67.6496 58.9489L66.2354 60.3631ZM70.1425 62C71.6535 62 72.9606 61.4398 74.0026 60.3457L72.5544 58.9663C71.8898 59.6642 71.1062 60 70.1425 60V62ZM73.9682 60.3801C75.0623 59.3381 75.6225 58.031 75.6225 56.52H73.6225C73.6225 57.4837 73.2867 58.2673 72.5888 58.9319L73.9682 60.3801ZM75.6225 56.52V25.16H73.6225V56.52H75.6225ZM74.6225 26.16H79.1025V24.16H74.6225V26.16ZM79.1025 26.16C80.6121 26.16 81.9311 25.6016 83.0096 24.5231L81.5954 23.1089C80.8819 23.8224 80.0675 24.16 79.1025 24.16V26.16ZM83.0096 24.5231C84.0557 23.477 84.5825 22.175 84.5825 20.68H82.5825C82.5825 21.6596 82.2559 22.4483 81.5954 23.1089L83.0096 24.5231ZM84.5825 20.68C84.5825 19.1859 84.0571 17.8723 83.0266 16.7903L81.5784 18.1697C82.2546 18.8797 82.5825 19.6994 82.5825 20.68H84.5825ZM82.9922 16.7559C81.9102 15.7254 80.5966 15.2 79.1025 15.2V17.2C80.0831 17.2 80.9028 17.5279 81.6128 18.2041L82.9922 16.7559ZM79.1025 15.2H61.1825V17.2H79.1025V15.2Z" fill="#E46C45"/>
</svg>
